<?xml version="1.0" standalone="no"?>
<!DOCTYPE svg PUBLIC "-//W3C//DTD SVG 20010904//EN"
 "http://www.w3.org/TR/2001/REC-SVG-20010904/DTD/svg10.dtd">
<svg version="1.0" xmlns="http://www.w3.org/2000/svg"
 width="512.000000pt" height="512.000000pt" viewBox="0 0 512.000000 512.000000"
 preserveAspectRatio="xMidYMid meet">
<metadata>
Created by potrace 1.14, written by Peter Selinger 2001-2017
</metadata>
<g transform="translate(0.000000,512.000000) scale(0.100000,-0.100000)"
fill="#000000" stroke="none">
<path d="M3357 4675 c-21 -7 -48 -21 -59 -32 -23 -20 -58 -85 -58 -106 0 -10
-30 -24 -84 -41 -47 -14 -123 -45 -169 -69 l-85 -42 -39 20 c-45 23 -116 24
-159 2 -50 -26 -211 -200 -220 -238 -11 -47 -7 -94 11 -129 8 -16 15 -34 15
-40 0 -7 -20 -54 -45 -106 -25 -52 -54 -126 -66 -163 -18 -63 -23 -69 -51 -75
-41 -8 -94 -49 -115 -89 -25 -48 -27 -287 -2 -338 22 -45 72 -88 110 -96 36
-7 43 -16 59 -78 8 -27 37 -99 65 -159 l52 -110 -20 -33 c-23 -41 -26 -117 -5
-158 21 -40 212 -225 235 -226 78 -6 100 -4 137 16 l41 22 49 -30 c55 -32 166
-77 238 -96 42 -12 47 -16 53 -50 8 -45 78 -115 125 -124 51 -11 241 -8 283 4
50 13 104 69 113 115 7 39 2 36 139 85 50 18 118 45 153 61 57 26 66 28 85 15
34 -22 93 -29 138 -17 55 15 230 187 249 244 14 43 7 109 -15 143 -17 25 -16
29 40 148 21 44 47 111 59 149 20 63 25 69 59 81 58 20 83 41 106 88 18 37 21
61 21 173 0 174 -19 213 -124 255 -37 15 -43 22 -57 70 -9 30 -40 105 -68 167
-49 110 -50 114 -35 143 20 41 26 94 14 138 -11 40 -167 209 -219 235 -47 25
-104 26 -152 5 l-43 -20 -95 42 c-53 24 -127 53 -166 65 -38 12 -72 28 -76 36
-34 76 -55 107 -85 128 -33 22 -46 24 -168 26 -87 1 -144 -2 -169 -11z m264
-187 c18 -69 60 -105 158 -134 47 -15 134 -50 194 -79 117 -58 170 -65 222
-31 13 9 30 16 37 16 7 0 43 -31 81 -68 l67 -67 -22 -44 c-33 -67 -27 -114 25
-212 25 -46 59 -129 77 -184 37 -116 71 -160 137 -177 l43 -10 0 -103 0 -103
-29 -10 c-16 -6 -31 -8 -34 -6 -3 3 -23 -12 -44 -33 -32 -30 -45 -56 -67 -123
-15 -47 -49 -131 -77 -188 -59 -119 -65 -168 -30 -228 l22 -37 -72 -73 -72
-72 -38 20 c-68 35 -110 31 -204 -18 -45 -24 -132 -60 -191 -80 -123 -41 -165
-74 -184 -144 l-11 -41 -103 2 -102 1 -12 42 c-18 67 -59 100 -170 136 -53 17
-137 52 -187 77 -104 54 -160 60 -220 24 l-35 -21 -70 70 c-39 38 -70 73 -70
77 0 4 9 26 21 50 28 59 22 102 -33 209 -25 49 -58 127 -72 174 -28 87 -47
125 -75 148 -25 20 -82 42 -92 36 -11 -6 -11 -4 -13 115 -1 76 1 94 14 98 49
17 103 48 116 69 9 13 31 69 50 125 19 56 56 142 81 190 41 80 45 93 39 136
-3 26 -13 57 -21 69 -8 13 -15 28 -15 33 0 12 129 141 141 141 5 0 25 -9 45
-19 55 -30 114 -21 214 32 47 25 123 57 168 71 46 15 93 31 105 37 33 17 65
57 78 98 6 20 13 39 15 42 1 3 48 5 104 5 l100 0 11 -38z"/>
<path d="M3350 4135 c-188 -40 -367 -163 -474 -325 -197 -297 -158 -693 93
-948 142 -143 336 -225 535 -225 244 1 475 117 612 309 122 171 168 354 140
559 -42 306 -286 565 -595 631 -83 17 -226 17 -311 -1z m351 -177 c99 -36 157
-74 230 -148 148 -150 204 -357 153 -575 -1 -5 -12 -34 -23 -64 -87 -217 -306
-368 -541 -372 -248 -4 -468 139 -564 367 -75 180 -57 381 50 551 31 49 140
163 155 163 4 0 14 6 21 14 21 20 123 65 187 81 86 22 249 14 332 -17z"/>
<path d="M525 4182 c-82 -15 -141 -57 -178 -126 l-22 -41 -2 -1265 c-2 -1177
-1 -1267 15 -1301 36 -74 86 -120 152 -139 22 -6 334 -10 828 -10 l793 0 -1
-163 c-2 -155 -12 -253 -28 -268 -4 -4 -50 -11 -102 -14 -52 -3 -106 -8 -120
-10 -14 -2 -52 -6 -85 -10 -93 -11 -320 -53 -425 -80 -243 -62 -448 -155 -468
-213 -19 -55 25 -111 82 -103 10 2 53 20 95 41 165 82 436 157 671 185 30 4
57 8 60 10 3 2 43 6 90 10 47 4 99 9 115 10 228 22 704 22 910 0 22 -3 70 -7
107 -10 37 -3 75 -7 85 -9 10 -2 45 -7 78 -10 79 -9 280 -51 369 -77 102 -30
162 -52 285 -109 116 -52 138 -54 171 -15 19 23 18 80 -3 103 -48 53 -292 149
-507 201 -175 41 -493 87 -637 90 -57 1 -60 16 -70 279 l-6 162 804 0 804 0
51 24 c55 25 93 68 120 132 14 34 16 88 16 407 0 403 -1 411 -56 425 -39 11
-60 5 -83 -20 -17 -18 -18 -47 -20 -347 -1 -179 -2 -345 -3 -369 0 -32 -6 -49
-25 -67 l-24 -25 -1916 0 -1916 0 -24 25 -25 24 0 1234 0 1234 26 24 26 24
859 1 c928 0 898 -1 917 54 11 29 -5 81 -30 96 -12 8 -1710 14 -1753 6z m2096
-3004 c2 -135 2 -143 13 -239 l7 -66 -195 0 c-195 -1 -196 -1 -190 21 9 39 12
81 13 244 l1 162 175 0 175 0 1 -122z"/>
<path d="M898 2353 c-143 -143 -158 -160 -158 -192 0 -31 15 -49 153 -188 83
-85 162 -156 175 -160 62 -15 120 55 90 111 -6 12 -58 67 -115 124 -57 56
-103 107 -103 112 0 5 49 58 109 118 60 60 112 119 116 131 15 48 -31 101 -87
101 -14 0 -75 -53 -180 -157z"/>
<path d="M1576 2487 c-17 -18 -38 -85 -95 -312 -61 -247 -70 -293 -61 -316 22
-53 104 -63 134 -16 21 31 158 585 151 608 -9 26 -54 59 -82 59 -13 0 -34 -10
-47 -23z"/>
<path d="M1982 2490 c-12 -12 -22 -24 -23 -28 0 -4 -2 -16 -4 -26 -6 -31 11
-54 122 -164 56 -56 103 -107 103 -112 0 -5 -49 -58 -109 -118 -60 -60 -112
-118 -116 -131 -16 -52 43 -111 97 -98 13 4 92 75 176 160 136 137 152 157
152 187 0 31 -16 50 -158 192 -134 134 -162 158 -188 158 -17 0 -40 -9 -52
-20z"/>
</g>
</svg>
